<svg xmlns="http://www.w3.org/2000/svg" viewBox="0 0 120 100" role="img" aria-labelledby="title">
  <title id="title">공원 정원 테마 스탬프</title>
  <g fill="none" stroke="#a1426e" stroke-linecap="round" stroke-linejoin="round">
    <ellipse cx="60" cy="50" rx="54" ry="44" stroke-width="3"/>
    <ellipse cx="60" cy="50" rx="49" ry="39" stroke-width="1.5"/>
    <g transform="translate(48 28)" stroke-width="1.8">
      <circle cx="12" cy="12" r="2.2"/>
      <path d="M12 9c-2-1-3-3-2-5 2 0 4 1 4 3 0 1-1 2-2 2Zm3 3c1-2 3-3 5-2 0 2-1 4-3 4-1 0-2-1-2-2Zm-3 3c2 1 3 3 2 5-2 0-4-1-4-3 0-1 1-2 2-2Zm-3-3c-1 2-3 3-5 2 0-2 1-4 3-4 1 0 2 1 2 2Z"/>
    </g>
  </g>
  <g fill="#a1426e" text-anchor="middle" font-family="Pretendard, Noto Sans KR, sans-serif">
    <text x="60" y="22" font-size="7" font-weight="800" letter-spacing="1.4">GARDEN</text>
    <text x="60" y="72" font-size="14" font-weight="900">공원·정원</text>
    <text x="60" y="85" font-size="6" font-weight="800" letter-spacing="1">GWANGJU</text>
  </g>
</svg>
